<?xml version="1.0" standalone="no"?>
<!DOCTYPE svg PUBLIC "-//W3C//DTD SVG 20010904//EN"
 "http://www.w3.org/TR/2001/REC-SVG-20010904/DTD/svg10.dtd">
<svg version="1.0" xmlns="http://www.w3.org/2000/svg"
 width="700.000000pt" height="700.000000pt" viewBox="0 0 700.000000 700.000000"
 preserveAspectRatio="xMidYMid meet">
<metadata>
Created by potrace 1.14, written by Peter Selinger 2001-2017
</metadata>
<g transform="translate(0.000000,700.000000) scale(0.100000,-0.100000)"
fill="#000000" stroke="none">
<path d="M4590 5241 c-169 -52 -260 -241 -191 -397 28 -61 86 -120 149 -150
l57 -27 553 -1 553 0 -887 -887 -887 -887 -643 643 c-484 484 -655 649 -691
666 -67 33 -177 33 -247 0 -71 -33 -2001 -1962 -2035 -2034 -68 -140 -6 -315
137 -388 66 -33 186 -33 252 0 32 16 300 278 907 884 l863 862 652 -651 c618
-617 656 -653 707 -669 70 -23 169 -17 231 15 31 16 341 319 1036 1014 546
546 998 997 1006 1003 11 9 13 -81 13 -541 l0 -551 28 -57 c110 -225 425 -224
531 2 21 45 21 49 21 995 l0 950 -23 46 c-32 65 -96 125 -159 149 -52 19 -78
20 -981 19 -510 0 -938 -4 -952 -8z"/>
</g>
</svg>
